<svg xmlns="http://www.w3.org/2000/svg" viewBox="0 0 841.9 595.3">
  <g fill="#61DAFB">
    <path d="M666.3 296.5c0-35.3-28.7-64-64-64s-64 28.7-64 64 28.7 64 64 64 64-28.7 64-64zm-64-42.7c23.6 0 42.7 19.1 42.7 42.7s-19.1 42.7-42.7 42.7-42.7-19.1-42.7-42.7 19.1-42.7 42.7-42.7z"/>
    <path d="M520.5 78.1c-47.6-13.7-102.3-22.1-159.6-22.1-57.3 0-112 8.4-159.6 22.1-46.7 13.5-85.4 33.2-114 57.8C61.8 187.5 39 240.2 39 296.5c0 56.3 22.8 109 48.3 160.6 28.6 24.6 67.3 44.3 114 57.8 47.6 13.7 102.3 22.1 159.6 22.1 57.3 0 112-8.4 159.6-22.1 46.7-13.5 85.4-33.2 114-57.8 25.5-51.6 48.3-104.3 48.3-160.6 0-56.3-22.8-109-48.3-160.6-28.6-24.6-67.3-44.3-114-57.8zM420.9 512c-49.8 0-97.4-8.7-139.8-22.9-42.8-14.5-80.3-35.6-109.5-60.5-29.2-25.1-50.5-54.3-61.8-87.2-11.3-33-11.3-67.5 0-100.5 11.3-32.9 32.6-62.1 61.8-87.2 29.2-24.9 66.7-46 109.5-60.5 42.4-14.2 90-22.9 139.8-22.9s97.4 8.7 139.8 22.9c42.8 14.5 80.3 35.6 109.5 60.5 29.2 25.1 50.5 54.3 61.8 87.2 11.3 33 11.3 67.5 0 100.5-11.3 32.9-32.6 62.1-61.8 87.2-29.2 24.9-66.7 46-109.5 60.5-42.4 14.2-90 22.9-139.8 22.9z"/>
  </g>
</svg>
